<svg width="47" height="46" viewBox="0 0 47 46" fill="none" xmlns="http://www.w3.org/2000/svg">
<path d="M14.2258 15.5484H33.2581H14.2258ZM14.2258 23.1613H21.8387H14.2258ZM23.7419 38.3871L16.129 30.7742H10.4194C9.40983 30.7742 8.44165 30.3732 7.7278 29.6593C7.01395 28.9455 6.61292 27.9773 6.61292 26.9677V11.7419C6.61292 10.7324 7.01395 9.76422 7.7278 9.05037C8.44165 8.33652 9.40983 7.93549 10.4194 7.93549H37.0645C38.0741 7.93549 39.0422 8.33652 39.7561 9.05037C40.4699 9.76422 40.871 10.7324 40.871 11.7419V26.9677C40.871 27.9773 40.4699 28.9455 39.7561 29.6593C39.0422 30.3732 38.0741 30.7742 37.0645 30.7742H31.3549L23.7419 38.3871Z" stroke="black" stroke-width="3.80645" stroke-linecap="round" stroke-linejoin="round"/>
</svg>
